<?xml version="1.0" encoding="UTF-8" standalone="no"?>
<svg width="42px" height="42px" viewBox="0 0 42 42" version="1.1" xmlns="http://www.w3.org/2000/svg" xmlns:xlink="http://www.w3.org/1999/xlink" xmlns:sketch="http://www.bohemiancoding.com/sketch/ns">
    <!-- Generator: Sketch 3.3.2 (12043) - http://www.bohemiancoding.com/sketch -->
    <title>icon-describe</title>
    <desc>Created with Sketch.</desc>
    <defs></defs>
    <g id="V1.5-Design" stroke="none" stroke-width="1" fill="none" fill-rule="evenodd" sketch:type="MSPage">
        <g id="02b" sketch:type="MSArtboardGroup" transform="translate(-1065.000000, -568.000000)" stroke="#999999" stroke-width="1.2">
            <g id="Group" sketch:type="MSLayerGroup" transform="translate(432.000000, 490.000000)">
                <g id="icon-describe" transform="translate(634.355614, 79.000000)" sketch:type="MSShapeGroup">
                    <path d="M28.1509982,36.8558621 L22.5045372,38.3193103 L24.0442831,32.9544828 L35.0809437,22.4696552 C35.6442831,21.9351724 36.5560799,21.9351724 37.1194192,22.4696552 L39.1876588,24.4351724 C39.7502722,24.9696552 39.7502722,25.8365517 39.1876588,26.3710345 L28.1509982,36.8558621 L28.1509982,36.8558621 Z" id="Stroke-314" fill="#D8D8D8"></path>
                    <path d="M10.8892922,6.89655172 L26.8602541,6.89655172 L26.8602541,15.1724138 L10.8892922,15.1724138 L10.8892922,6.89655172 Z" id="Stroke-332"></path>
                    <path d="M22.5045372,38.3193103 L21.9912886,38.8068966" id="Stroke-756" stroke-linecap="round"></path>
                    <path d="M36.6134301,28.8165517 L32.5067151,24.9151724" id="Stroke-986"></path>
                    <path d="M24.0442831,32.9544828 L28.1509982,36.8558621" id="Stroke-988"></path>
                    <path d="M0,0 L5.8076225,0 L5.8076225,40 L0,40 L0,0 Z" id="Stroke-1944"></path>
                    <path d="M13.7931034,9 L23.9564428,9" id="Stroke-1946"></path>
                    <path d="M13.7931034,12 L23.9564428,12" id="Stroke-1948"></path>
                    <path d="M31.9419238,20 L31.9419238,0 L0,0 L0,40 L17.4228675,40" id="Stroke-1950"></path>
                </g>
            </g>
        </g>
    </g>
</svg>