<?xml version="1.0" encoding="UTF-8" standalone="no"?>
<svg width="9px" height="13px" viewBox="0 0 9 13" version="1.1" xmlns="http://www.w3.org/2000/svg" xmlns:xlink="http://www.w3.org/1999/xlink" xmlns:sketch="http://www.bohemiancoding.com/sketch/ns">
    <!-- Generator: Sketch 3.3.2 (12043) - http://www.bohemiancoding.com/sketch -->
    <title>icon-lock-gray</title>
    <desc>Created with Sketch.</desc>
    <defs></defs>
    <g id="V1.5-Design" stroke="none" stroke-width="1" fill="none" fill-rule="evenodd" sketch:type="MSPage">
        <g id="02b" sketch:type="MSArtboardGroup" transform="translate(-586.000000, -1373.000000)" fill="#7F7F7F">
            <g id="Rectangle-204-Copy-7-+-Group-Copy" sketch:type="MSLayerGroup" transform="translate(369.000000, 1033.000000)">
                <g id="Group-Copy" sketch:type="MSShapeGroup">
                    <g id="Rectangle-345-+-SEE-PRICE-QUOTES" transform="translate(149.000000, 277.000000)">
                        <g id="Group">
                            <g>
                                <path d="M76.1513278,68.1758982 C75.9495138,68.1472282 75.7876129,67.9982569 75.7876129,67.7941942 L75.7876129,66.6131043 C75.7876129,64.8097077 74.3979631,63.236795 72.5951286,63.182828 C70.7298948,63.1271746 69.2002681,64.6225097 69.2002681,66.4753761 L69.2002681,67.7925078 C69.2002681,67.9982569 69.0361185,68.1477904 68.832618,68.175336 C68.3649042,68.2382975 68.004,68.6391148 68.004,69.1248176 L68.004,74.4889108 C68.004,75.0178996 68.4329251,75.4468247 68.9619139,75.4468247 L76.0360858,75.4468247 C76.5650747,75.4468247 76.9939998,75.0178996 76.9939998,74.4889108 L76.9939998,69.1248176 C76.9939998,68.6419256 76.6190417,68.2427948 76.1513278,68.1758982 L76.1513278,68.1758982 Z M70.781051,66.4416467 C70.781051,65.4696789 71.5939286,64.688282 72.5765774,64.7400003 C73.4985134,64.7877836 74.1894032,65.6152773 74.1894032,66.5377754 L74.1894032,67.7492217 C74.1894032,67.9797057 74.0022052,68.1663415 73.7722834,68.1663415 L71.1981708,68.1663415 C70.9676868,68.1663415 70.781051,67.9797057 70.781051,67.7492217 L70.781051,66.4416467 L70.781051,66.4416467 Z" id="icon-lock-gray"></path>
                            </g>
                        </g>
                    </g>
                </g>
            </g>
        </g>
    </g>
</svg>