<?xml version="1.0" encoding="UTF-8" standalone="no"?>
<svg width="12px" height="15px" viewBox="0 0 12 15" version="1.1" xmlns="http://www.w3.org/2000/svg" xmlns:xlink="http://www.w3.org/1999/xlink" xmlns:sketch="http://www.bohemiancoding.com/sketch/ns">
    <!-- Generator: Sketch 3.3.3 (12081) - http://www.bohemiancoding.com/sketch -->
    <title>icon-mechanic-note</title>
    <desc>Created with Sketch.</desc>
    <defs></defs>
    <g id="V1.5-Design" stroke="none" stroke-width="1" fill="none" fill-rule="evenodd" sketch:type="MSPage">
        <g id="03" sketch:type="MSArtboardGroup" transform="translate(-948.000000, -601.000000)" fill="#1E7BE2">
            <g id="+-Add-another-servic-+-Add-notes-for-the-me-+-notepad" sketch:type="MSLayerGroup" transform="translate(432.000000, 601.000000)">
                <path d="M518.957942,2.96381255 C518.585172,2.96381255 518.282847,2.66148753 518.282847,2.28945164 L518.282847,0.674360915 C518.282847,0.301591225 518.585172,0 518.957942,0 C519.329978,0 519.632303,0.301591225 519.632303,0.674360915 L519.632303,2.28945164 C519.632303,2.66148753 519.329978,2.96381255 518.957942,2.96381255 L518.957942,2.96381255 Z M524.794576,2.28945164 L524.794576,0.674360915 C524.794576,0.301591225 524.492985,0 524.120215,0 C523.748179,0 523.445854,0.301591225 523.445854,0.674360915 L523.445854,2.28945164 C523.445854,2.66148753 523.748179,2.96381255 524.120215,2.96381255 C524.492985,2.96381255 524.794576,2.66148753 524.794576,2.28945164 L524.794576,2.28945164 Z M527.04,2.03555732 L527.04,13.7102931 C527.04,14.2980658 526.563765,14.774301 525.976726,14.774301 L517.063274,14.774301 C516.476235,14.774301 516,14.2980658 516,13.7102931 L516,2.03555732 C516,1.44851844 516.476235,0.972283147 517.063274,0.972283147 L517.359729,0.972283147 C517.56079,0.972283147 517.724427,1.13592024 517.724427,1.33698105 L517.724427,2.28358125 C517.724427,3.03058822 518.390716,3.6220299 519.161204,3.49728414 C519.765854,3.39895512 520.184853,2.83026121 520.184853,2.21827317 L520.184853,1.33698105 C520.184853,1.13592024 520.348491,0.972283147 520.549551,0.972283147 L522.530808,0.972283147 C522.732602,0.972283147 522.895505,1.13592024 522.895505,1.33698105 L522.895505,2.28358125 C522.895505,3.03058822 523.561795,3.6220299 524.333017,3.49728414 C524.937667,3.39895512 525.355932,2.83026121 525.355932,2.21753937 L525.355932,1.33698105 C525.355932,1.13592024 525.519569,0.972283147 525.721364,0.972283147 L525.976726,0.972283147 C526.563765,0.972283147 527.04,1.44851844 527.04,2.03555732 L527.04,2.03555732 Z M522.598317,11.2704127 C522.598317,10.9468075 522.336351,10.6848414 522.012746,10.6848414 L518.782564,10.6848414 C518.458959,10.6848414 518.196259,10.9468075 518.196259,11.2704127 C518.196259,11.5940179 518.458959,11.8567178 518.782564,11.8567178 L522.012746,11.8567178 C522.336351,11.8567178 522.598317,11.5940179 522.598317,11.2704127 L522.598317,11.2704127 Z M524.843741,8.79164105 C524.843741,8.46730206 524.581775,8.20533596 524.258169,8.20533596 L518.782564,8.20533596 C518.458959,8.20533596 518.196259,8.46730206 518.196259,8.79164105 C518.196259,9.11524623 518.458959,9.37721233 518.782564,9.37721233 L524.258169,9.37721233 C524.581775,9.37721233 524.843741,9.11524623 524.843741,8.79164105 L524.843741,8.79164105 Z M524.843741,6.28718642 C524.843741,5.96358124 524.581775,5.70161513 524.258169,5.70161513 L518.782564,5.70161513 C518.458959,5.70161513 518.196259,5.96358124 518.196259,6.28718642 C518.196259,6.6115254 518.458959,6.8734915 518.782564,6.8734915 L524.258169,6.8734915 C524.581775,6.8734915 524.843741,6.6115254 524.843741,6.28718642 L524.843741,6.28718642 Z" id="icon-mechanic-note" sketch:type="MSShapeGroup"></path>
            </g>
        </g>
    </g>
</svg>