<?xml version="1.0" encoding="UTF-8" standalone="no"?>
<svg width="41px" height="42px" viewBox="0 0 41 42" version="1.1" xmlns="http://www.w3.org/2000/svg" xmlns:xlink="http://www.w3.org/1999/xlink" xmlns:sketch="http://www.bohemiancoding.com/sketch/ns">
    <!-- Generator: Sketch 3.3.2 (12043) - http://www.bohemiancoding.com/sketch -->
    <title>icon-diagnostics</title>
    <desc>Created with Sketch.</desc>
    <defs></defs>
    <g id="V1.5-Design" stroke="none" stroke-width="1" fill="none" fill-rule="evenodd" sketch:type="MSPage">
        <g id="02b" sketch:type="MSArtboardGroup" transform="translate(-779.000000, -567.000000)" stroke-linecap="round" stroke="#999999" stroke-width="1.2">
            <g id="Group" sketch:type="MSLayerGroup" transform="translate(432.000000, 490.000000)">
                <g transform="translate(289.000000, 58.000000)" id="icon-diagnostics" sketch:type="MSShapeGroup">
                    <g transform="translate(59.500000, 20.000000)">
                        <path d="M37.8571429,32.9935714 L37.7807143,33.1107143 C32.695,40.8792857 24.3721429,40.8792857 19.2857143,33.1107143 L19.3621429,32.9935714 C24.4485714,25.225 32.7707143,25.225 37.8571429,32.9935714 L37.8571429,32.9935714 Z" id="Stroke-4216"></path>
                        <path d="M32.6235714,31.3635714 C32.6235714,33.6942857 30.7335714,35.5842857 28.4028571,35.5842857 C26.0714286,35.5842857 24.1821429,33.6942857 24.1821429,31.3635714 C24.1821429,29.0321429 26.0714286,27.1428571 28.4028571,27.1428571 C30.7335714,27.1428571 32.6235714,29.0321429 32.6235714,31.3635714 L32.6235714,31.3635714 Z" id="Stroke-4218" fill="#D8D8D8"></path>
                        <path d="M4.28571429,11 L13.5714286,11" id="Stroke-5094" stroke-linejoin="round"></path>
                        <path d="M4.28571429,32 L13.5714286,32" id="Stroke-5096" stroke-linejoin="round"></path>
                        <path d="M4.28571429,15 L25,15" id="Stroke-5098" stroke-linejoin="round"></path>
                        <path d="M4.28571429,24 L21.4285714,24" id="Stroke-5100" stroke-linejoin="round"></path>
                        <path d="M4.28571429,28 L17.8571429,28" id="Stroke-5102" stroke-linejoin="round"></path>
                        <path d="M4.28571429,20 L14.2857143,20" id="Stroke-5104" stroke-linejoin="round"></path>
                        <path d="M20,20 L25,20" id="Stroke-5106" stroke-linejoin="round"></path>
                        <path id="Stroke-5108" stroke-linejoin="round"></path>
                        <path d="M11.4285714,0 L17.8571429,0 L17.8571429,4.28571429 L11.4285714,4.28571429 L11.4285714,0 Z" id="Stroke-5110" stroke-linejoin="round"></path>
                        <path d="M17.8571429,2.14285714 L17.8571429,4.28571429 L11.4285714,4.28571429 L11.4285714,2.14285714 L6.42857143,2.14285714 L6.42857143,6.42857143 L22.8571429,6.42857143 L22.8571429,2.14285714 L17.8571429,2.14285714 L17.8571429,2.14285714 Z" id="Stroke-5112" stroke-linejoin="round"></path>
                        <path d="M29.2857143,22.1428571 L29.2857143,4.28571429 L22.8571429,4.28571429 L22.8571429,6.42857143 L6.42857143,6.42857143 L6.42857143,4.28571429 L0,4.28571429 L0,40 L17.8571429,40" id="Stroke-5114" stroke-linejoin="round"></path>
                    </g>
                </g>
            </g>
        </g>
    </g>
</svg>