<?xml version="1.0" encoding="UTF-8" standalone="no"?>
<svg width="22px" height="22px" viewBox="0 0 22 22" version="1.1" xmlns="http://www.w3.org/2000/svg" xmlns:xlink="http://www.w3.org/1999/xlink" xmlns:sketch="http://www.bohemiancoding.com/sketch/ns">
    <!-- Generator: Sketch 3.3.2 (12043) - http://www.bohemiancoding.com/sketch -->
    <title>icon-service-plus</title>
    <desc>Created with Sketch.</desc>
    <defs></defs>
    <g id="V1.5-Design" stroke="none" stroke-width="1" fill="none" fill-rule="evenodd" sketch:type="MSPage">
        <g id="02b" sketch:type="MSArtboardGroup" transform="translate(-447.000000, -692.000000)" fill="#1E7BE2">
            <g id="Group" sketch:type="MSLayerGroup" transform="translate(432.000000, 490.000000)">
                <g id="icon-service-plus" transform="translate(15.000000, 202.000000)" sketch:type="MSShapeGroup">
                    <g id="Shape-+-Icon">
                        <path d="M11,21.5 C16.7989899,21.5 21.5,16.7989899 21.5,11 C21.5,5.20101013 16.7989899,0.5 11,0.5 C5.20101013,0.5 0.5,5.20101013 0.5,11 C0.5,16.7989899 5.20101013,21.5 11,21.5 L11,21.5 Z M11,20.5 C5.75329488,20.5 1.5,16.2467051 1.5,11 C1.5,5.75329488 5.75329488,1.5 11,1.5 C16.2467051,1.5 20.5,5.75329488 20.5,11 C20.5,16.2467051 16.2467051,20.5 11,20.5 L11,20.5 Z" id="Shape"></path>
                        <path d="M11.9181034,11 L14,8.91810345 L13.0818966,8 L11,10.0818966 L8.91810345,8 L8,8.91810345 L10.0818966,11 L8,13.0818966 L8.91810345,14 L11,11.9181034 L13.0818966,14 L14,13.0818966 L11.9181034,11 Z" id="Icon" transform="translate(11.000000, 11.000000) rotate(-45.000000) translate(-11.000000, -11.000000) "></path>
                    </g>
                </g>
            </g>
        </g>
    </g>
</svg>