<?xml version="1.0" encoding="UTF-8" standalone="no"?>
<svg width="44px" height="44px" viewBox="0 0 44 44" version="1.1" xmlns="http://www.w3.org/2000/svg" xmlns:xlink="http://www.w3.org/1999/xlink" xmlns:sketch="http://www.bohemiancoding.com/sketch/ns">
    <!-- Generator: Sketch 3.3.3 (12081) - http://www.bohemiancoding.com/sketch -->
    <title>icon-repair-blue</title>
    <desc>Created with Sketch.</desc>
    <defs></defs>
    <g id="V1.5-Design" stroke="none" stroke-width="1" fill="none" fill-rule="evenodd" sketch:type="MSPage">
        <g id="02b" sketch:type="MSArtboardGroup" transform="translate(-625.000000, -564.000000)" stroke="#FFFFFF" stroke-width="0.6" fill="#1E7BE2">
            <g id="Group" sketch:type="MSLayerGroup" transform="translate(432.000000, 490.000000)">
                <path d="M231.152,108.832 C230.859,108.852 230.576,108.748 230.371,108.542 L219.152,97.325 C218.88,97.052 218.788,96.648 218.917,96.285 C219.699,94.074 219.166,91.681 217.526,90.04 C216.474,88.989 215.088,88.386 213.588,88.322 L213.283,88.626 L215.404,90.747 C215.641,90.984 215.744,91.323 215.678,91.651 L214.971,95.187 C214.892,95.582 214.582,95.892 214.187,95.971 L210.651,96.678 C210.323,96.742 209.985,96.642 209.748,96.405 L207.626,94.284 L207.321,94.588 C207.386,96.087 207.989,97.474 209.041,98.526 C210.68,100.166 213.074,100.697 215.284,99.917 C215.648,99.788 216.052,99.881 216.324,100.153 L222.948,106.777 C223.339,107.167 223.339,107.8 222.948,108.191 C222.558,108.581 221.925,108.581 221.534,108.191 L215.336,101.994 C212.571,102.737 209.665,101.979 207.627,99.94 C206.096,98.409 205.275,96.356 205.317,94.16 C205.322,93.901 205.427,93.654 205.61,93.471 L206.92,92.162 C207.31,91.772 207.943,91.772 208.334,92.162 L210.783,94.612 L213.14,94.141 L213.612,91.784 L211.162,89.333 C210.772,88.943 210.772,88.31 211.162,87.919 L212.471,86.61 C212.654,86.427 212.901,86.322 213.16,86.317 C215.343,86.291 217.41,87.096 218.94,88.626 C220.979,90.665 221.738,93.571 220.993,96.337 L230.937,106.281 C235.724,98.864 234.73,88.86 228.425,82.555 C221.017,75.147 208.964,75.147 201.555,82.555 C194.147,89.963 194.147,102.017 201.555,109.425 C208.137,116.007 218.751,116.802 226.241,111.273 C226.687,110.944 227.311,111.039 227.64,111.484 C227.968,111.928 227.873,112.554 227.429,112.882 C223.739,115.605 219.363,116.94 215.003,116.94 C209.577,116.94 204.174,114.873 200.141,110.839 C191.953,102.652 191.953,89.329 200.141,81.141 C208.329,72.953 221.652,72.953 229.84,81.141 C237.115,88.416 237.993,100.148 231.882,108.429 C231.71,108.663 231.443,108.811 231.152,108.832 Z" id="icon-repair-blue" sketch:type="MSShapeGroup"></path>
            </g>
        </g>
    </g>
</svg>