<?xml version="1.0" encoding="UTF-8" standalone="no"?>
<svg width="42px" height="42px" viewBox="0 0 42 42" version="1.1" xmlns="http://www.w3.org/2000/svg" xmlns:xlink="http://www.w3.org/1999/xlink" xmlns:sketch="http://www.bohemiancoding.com/sketch/ns">
    <!-- Generator: Sketch 3.3.2 (12043) - http://www.bohemiancoding.com/sketch -->
    <title>icon-maintenance</title>
    <desc>Created with Sketch.</desc>
    <defs></defs>
    <g id="V1.5-Design" stroke="none" stroke-width="1" fill="none" fill-rule="evenodd" sketch:type="MSPage">
        <g id="02b" sketch:type="MSArtboardGroup" transform="translate(-920.000000, -566.000000)" stroke-linecap="round" stroke="#999999" stroke-width="1.2">
            <g id="Group" sketch:type="MSLayerGroup" transform="translate(432.000000, 490.000000)">
                <g id="icon-maintenance" transform="translate(489.000000, 77.000000)" sketch:type="MSShapeGroup">
                    <path d="M40,32.1428571 C40,36.4821429 36.4821429,40 32.1428571,40 C27.8035714,40 24.2857143,36.4821429 24.2857143,32.1428571 C24.2857143,27.8035714 27.8035714,24.2857143 32.1428571,24.2857143 C36.4821429,24.2857143 40,27.8035714 40,32.1428571 L40,32.1428571 Z" id="Stroke-126" fill="#D8D8D8"></path>
                    <path d="M32,27.8571429 L32,32.1428571" id="Stroke-4084"></path>
                    <path d="M32.1428571,32 L36.4285714,32" id="Stroke-4126"></path>
                    <path d="M4.28571429,0 L9.28571429,0 L9.28571429,5.71428571 L4.28571429,5.71428571 L4.28571429,0 Z" id="Stroke-4522" stroke-linejoin="round"></path>
                    <path d="M26.4285714,0 L31.4285714,0 L31.4285714,5.71428571 L26.4285714,5.71428571 L26.4285714,0 Z" id="Stroke-4524" stroke-linejoin="round"></path>
                    <path d="M31.4285714,2.85714286 L31.4285714,5.71428571 L26.4285714,5.71428571 L26.4285714,2.85714286 L9.28571429,2.85714286 L9.28571429,5.71428571 L4.28571429,5.71428571 L4.28571429,2.85714286 L0,2.85714286 L0,10 L35.7142857,10 L35.7142857,2.85714286 L31.4285714,2.85714286 L31.4285714,2.85714286 Z" id="Stroke-4526" stroke-linejoin="round"></path>
                    <path d="M5,15 L11.4285714,15 L11.4285714,21.4285714 L5,21.4285714 L5,15 Z" id="Stroke-4528"></path>
                    <path d="M5,21.4285714 L11.4285714,21.4285714 L11.4285714,27.8571429 L5,27.8571429 L5,21.4285714 Z" id="Stroke-4530"></path>
                    <path d="M5,27.8571429 L11.4285714,27.8571429 L11.4285714,34.2857143 L5,34.2857143 L5,27.8571429 Z" id="Stroke-4532"></path>
                    <path d="M11.4285714,15 L17.8571429,15 L17.8571429,21.4285714 L11.4285714,21.4285714 L11.4285714,15 Z" id="Stroke-4534"></path>
                    <path d="M11.4285714,21.4285714 L17.8571429,21.4285714 L17.8571429,27.8571429 L11.4285714,27.8571429 L11.4285714,21.4285714 Z" id="Stroke-4536"></path>
                    <path d="M11.4285714,27.8571429 L17.8571429,27.8571429 L17.8571429,34.2857143 L11.4285714,34.2857143 L11.4285714,27.8571429 Z" id="Stroke-4538"></path>
                    <path d="M17.8571429,15 L24.2857143,15 L24.2857143,21.4285714 L17.8571429,21.4285714 L17.8571429,15 Z" id="Stroke-4540"></path>
                    <path d="M24.2857143,15 L30.7142857,15 L30.7142857,21.4285714 L24.2857143,21.4285714 L24.2857143,15 Z" id="Stroke-4542"></path>
                    <path d="M35.7142857,20 L35.7142857,2.85714286 L31.4285714,2.85714286 L31.4285714,5.71428571 L26.4285714,5.71428571 L26.4285714,2.85714286 L9.28571429,2.85714286 L9.28571429,5.71428571 L4.28571429,5.71428571 L4.28571429,2.85714286 L0,2.85714286 L0,39.2857143 L22.8571429,39.2857143" id="Stroke-4544" stroke-linejoin="round"></path>
                </g>
            </g>
        </g>
    </g>
</svg>